<?xml version="1.0" standalone="no"?>
<!DOCTYPE svg PUBLIC "-//W3C//DTD SVG 20010904//EN"
 "http://www.w3.org/TR/2001/REC-SVG-20010904/DTD/svg10.dtd">
<svg version="1.0" xmlns="http://www.w3.org/2000/svg"
 width="24.000000pt" height="24.000000pt" viewBox="0 0 24.000000 24.000000"
 preserveAspectRatio="xMidYMid meet">

<g transform="translate(0.000000,24.000000) scale(0.100000,-0.100000)"
fill="#000000" stroke="none">
<path d="M36 194 c-29 -29 -13 -75 48 -133 l36 -35 36 35 c46 44 67 85 60 115
-8 29 -50 42 -79 25 -14 -9 -22 -10 -30 -2 -16 16 -53 13 -71 -5z m72 -16 c8
-8 15 -8 26 1 25 21 61 10 64 -21 3 -21 -7 -38 -37 -70 l-41 -43 -40 42 c-37
39 -51 79 -33 96 10 11 48 8 61 -5z"/>
</g>
</svg>
