<svg width="247" height="126" viewBox="0 0 247 126" fill="none" xmlns="http://www.w3.org/2000/svg">
<path d="M6.28418 92V21.6172H30.9375C39.4775 21.6172 45.9551 23.2607 50.3701 26.5479C54.7852 29.8027 56.9927 34.5884 56.9927 40.9048C56.9927 44.353 56.1064 47.3984 54.334 50.041C52.5615 52.6514 50.0962 54.5688 46.938 55.7935C50.5474 56.6958 53.3833 58.5166 55.4458 61.2559C57.5405 63.9951 58.5879 67.3467 58.5879 71.3105C58.5879 78.0781 56.4287 83.2021 52.1104 86.6826C47.792 90.1631 41.6367 91.9355 33.6445 92H6.28418ZM20.7861 61.3525V80.3501H33.2095C36.6255 80.3501 39.2842 79.5444 41.1855 77.9331C43.1191 76.2896 44.0859 74.0337 44.0859 71.1655C44.0859 64.7202 40.7505 61.4492 34.0796 61.3525H20.7861ZM20.7861 51.1045H31.5176C38.833 50.9756 42.4907 48.0591 42.4907 42.355C42.4907 39.1646 41.5562 36.8765 39.687 35.4907C37.8501 34.0728 34.9336 33.3638 30.9375 33.3638H20.7861V51.1045ZM109.248 77.498H83.8213L78.9873 92H63.5669L89.7671 21.6172H103.206L129.551 92H114.13L109.248 77.498ZM87.7368 65.7515H105.333L96.4863 39.4062L87.7368 65.7515ZM172.622 73.5342C172.622 70.7949 171.655 68.7002 169.721 67.25C167.788 65.7676 164.307 64.2207 159.28 62.6094C154.252 60.9658 150.272 59.3545 147.34 57.7754C139.348 53.457 135.352 47.6401 135.352 40.3247C135.352 36.522 136.415 33.1382 138.542 30.1733C140.701 27.1763 143.779 24.8398 147.775 23.1641C151.803 21.4883 156.315 20.6504 161.31 20.6504C166.337 20.6504 170.817 21.5688 174.749 23.4058C178.68 25.2104 181.726 27.7725 183.885 31.0918C186.076 34.4111 187.172 38.1816 187.172 42.4033H172.67C172.67 39.1807 171.655 36.6831 169.625 34.9106C167.594 33.106 164.742 32.2036 161.068 32.2036C157.523 32.2036 154.768 32.9609 152.802 34.4756C150.836 35.958 149.854 37.9238 149.854 40.373C149.854 42.6611 150.998 44.5786 153.286 46.1255C155.606 47.6724 159.006 49.1226 163.485 50.4761C171.735 52.9575 177.746 56.0352 181.516 59.709C185.287 63.3828 187.172 67.959 187.172 73.4375C187.172 79.5283 184.868 84.314 180.259 87.7944C175.651 91.2427 169.447 92.9668 161.648 92.9668C156.234 92.9668 151.304 91.9839 146.856 90.0181C142.409 88.02 139.009 85.2969 136.657 81.8486C134.336 78.4004 133.176 74.4043 133.176 69.8604H147.727C147.727 77.627 152.367 81.5103 161.648 81.5103C165.097 81.5103 167.788 80.8174 169.721 79.4316C171.655 78.0137 172.622 76.0479 172.622 73.5342ZM239.379 61.4976H211.535V80.3501H244.213V92H197.033V21.6172H244.116V33.3638H211.535V50.1377H239.379V61.4976Z" fill="#2B3B4C"/>
<path d="M8.40552 111.226V119.248H11.4587V111.226H13.6538V119.248H16.7161V111.226H18.9021V121H6.21045V111.226H8.40552ZM27.1223 121C27.026 120.813 26.9417 120.509 26.8694 120.088C26.1708 120.816 25.3157 121.181 24.304 121.181C23.3223 121.181 22.5214 120.901 21.9011 120.341C21.2808 119.781 20.9707 119.088 20.9707 118.263C20.9707 117.221 21.3561 116.423 22.127 115.869C22.9038 115.309 24.0119 115.029 25.4512 115.029H26.7971V114.388C26.7971 113.882 26.6556 113.478 26.3726 113.177C26.0895 112.87 25.6589 112.717 25.0808 112.717C24.581 112.717 24.1715 112.843 23.8523 113.096C23.5331 113.343 23.3735 113.659 23.3735 114.044H21.1785C21.1785 113.508 21.3561 113.009 21.7114 112.545C22.0667 112.075 22.5485 111.708 23.1567 111.443C23.771 111.178 24.4545 111.045 25.2073 111.045C26.3515 111.045 27.2638 111.334 27.9443 111.913C28.6248 112.485 28.9741 113.292 28.9922 114.333V118.742C28.9922 119.621 29.1156 120.323 29.3625 120.846V121H27.1223ZM24.7104 119.419C25.144 119.419 25.5505 119.314 25.9299 119.103C26.3153 118.892 26.6044 118.609 26.7971 118.254V116.411H25.6138C24.8008 116.411 24.1895 116.553 23.78 116.836C23.3705 117.119 23.1658 117.519 23.1658 118.037C23.1658 118.459 23.3043 118.796 23.5813 119.049C23.8643 119.296 24.2407 119.419 24.7104 119.419ZM35.8936 111.768C37.1221 111.768 38.1067 112.181 38.8474 113.006C39.5881 113.825 39.9585 114.939 39.9585 116.348V116.456C39.9585 117.865 39.555 119.007 38.748 119.88C37.9471 120.753 36.8571 121.19 35.478 121.19C34.1351 121.19 33.0511 120.744 32.2261 119.853C31.401 118.962 30.9885 117.745 30.9885 116.203V115.571C30.9885 113.463 31.3619 111.795 32.1086 110.567C32.8554 109.338 33.9695 108.57 35.4509 108.263C36.282 108.095 36.818 107.917 37.0588 107.73C37.3057 107.538 37.4292 107.279 37.4292 106.953H39.1997C39.1997 107.562 39.1003 108.055 38.9016 108.435C38.7029 108.814 38.3988 109.124 37.9893 109.365C37.5798 109.6 36.8752 109.823 35.8755 110.034C34.9601 110.226 34.2616 110.57 33.7798 111.063C33.304 111.557 32.9849 112.241 32.8223 113.114C33.6955 112.217 34.7192 111.768 35.8936 111.768ZM35.46 113.53C34.7493 113.53 34.1923 113.77 33.7888 114.252C33.3853 114.728 33.1836 115.463 33.1836 116.456C33.1836 117.396 33.3823 118.127 33.7798 118.651C34.1772 119.175 34.7433 119.437 35.478 119.437C36.2067 119.437 36.7698 119.175 37.1672 118.651C37.5707 118.121 37.7725 117.326 37.7725 116.267C37.7725 115.424 37.5707 114.758 37.1672 114.27C36.7698 113.776 36.2007 113.53 35.46 113.53ZM49.9854 111.226V121H47.7903V112.997H45.0261L44.8455 116.402C44.731 118.04 44.4149 119.217 43.897 119.934C43.3851 120.645 42.5992 121 41.5393 121H40.8618L40.8528 119.175L41.3044 119.13C41.7862 119.064 42.1355 118.772 42.3523 118.254C42.5751 117.73 42.7166 116.778 42.7769 115.399L42.9575 111.226H49.9854ZM51.9094 116.023C51.9094 115.065 52.0991 114.204 52.4785 113.439C52.8579 112.668 53.3909 112.078 54.0774 111.669C54.7639 111.253 55.5528 111.045 56.4441 111.045C57.7629 111.045 58.8319 111.47 59.6509 112.319C60.4759 113.168 60.9215 114.294 60.9878 115.698L60.9968 116.212C60.9968 117.176 60.8101 118.037 60.4368 118.796C60.0694 119.555 59.5395 120.142 58.8469 120.557C58.1604 120.973 57.3655 121.181 56.4622 121.181C55.0831 121.181 53.978 120.723 53.147 119.808C52.3219 118.886 51.9094 117.661 51.9094 116.131V116.023ZM54.1045 116.212C54.1045 117.218 54.3123 118.007 54.7278 118.579C55.1433 119.145 55.7214 119.428 56.4622 119.428C57.2029 119.428 57.778 119.139 58.1875 118.561C58.603 117.983 58.8108 117.137 58.8108 116.023C58.8108 115.035 58.597 114.252 58.1694 113.674C57.7479 113.096 57.1728 112.807 56.4441 112.807C55.7275 112.807 55.1584 113.093 54.7368 113.665C54.3153 114.231 54.1045 115.08 54.1045 116.212ZM71.1321 121H68.937V117.052H65.134V121H62.939V111.226H65.134V115.3H68.937V111.226H71.1321V121ZM84.1851 111.226H86.3711V121H84.1851V114.478L80.355 121H78.1689V111.226H80.355V117.748L84.1851 111.226ZM96.9851 121H94.79V117.052H90.9871V121H88.792V111.226H90.9871V115.3H94.79V111.226H96.9851V121ZM107.021 112.969H103.85V121H101.655V112.969H98.5208V111.226H107.021V112.969ZM112.215 121.181C110.824 121.181 109.695 120.744 108.828 119.871C107.966 118.992 107.536 117.823 107.536 116.366V116.095C107.536 115.119 107.723 114.249 108.096 113.484C108.475 112.714 109.005 112.114 109.686 111.687C110.366 111.259 111.125 111.045 111.962 111.045C113.293 111.045 114.32 111.47 115.042 112.319C115.771 113.168 116.135 114.37 116.135 115.923V116.809H109.749C109.815 117.616 110.083 118.254 110.553 118.724C111.029 119.193 111.625 119.428 112.342 119.428C113.347 119.428 114.166 119.022 114.799 118.209L115.982 119.338C115.59 119.922 115.067 120.377 114.41 120.702C113.76 121.021 113.028 121.181 112.215 121.181ZM111.953 112.807C111.351 112.807 110.863 113.018 110.49 113.439C110.122 113.861 109.888 114.448 109.785 115.201H113.968V115.038C113.919 114.303 113.724 113.749 113.38 113.376C113.037 112.997 112.561 112.807 111.953 112.807ZM126.406 116.212C126.406 117.724 126.063 118.931 125.376 119.835C124.69 120.732 123.769 121.181 122.612 121.181C121.54 121.181 120.682 120.828 120.038 120.124V124.758H117.843V111.226H119.866L119.957 112.22C120.601 111.437 121.477 111.045 122.585 111.045C123.778 111.045 124.711 111.491 125.385 112.382C126.066 113.268 126.406 114.499 126.406 116.077V116.212ZM124.22 116.023C124.22 115.047 124.024 114.273 123.633 113.701C123.248 113.129 122.694 112.843 121.971 112.843C121.074 112.843 120.429 113.213 120.038 113.954V118.29C120.435 119.049 121.086 119.428 121.989 119.428C122.688 119.428 123.233 119.148 123.624 118.588C124.021 118.022 124.22 117.167 124.22 116.023ZM136.551 121H134.355V117.052H130.552V121H128.357V111.226H130.552V115.3H134.355V111.226H136.551V121ZM143.199 121.181C141.808 121.181 140.679 120.744 139.812 119.871C138.95 118.992 138.52 117.823 138.52 116.366V116.095C138.52 115.119 138.706 114.249 139.08 113.484C139.459 112.714 139.989 112.114 140.67 111.687C141.35 111.259 142.109 111.045 142.946 111.045C144.277 111.045 145.304 111.47 146.026 112.319C146.755 113.168 147.119 114.37 147.119 115.923V116.809H140.733C140.799 117.616 141.067 118.254 141.537 118.724C142.013 119.193 142.609 119.428 143.325 119.428C144.331 119.428 145.15 119.022 145.782 118.209L146.966 119.338C146.574 119.922 146.05 120.377 145.394 120.702C144.744 121.021 144.012 121.181 143.199 121.181ZM142.937 112.807C142.335 112.807 141.847 113.018 141.474 113.439C141.106 113.861 140.871 114.448 140.769 115.201H144.951V115.038C144.903 114.303 144.708 113.749 144.364 113.376C144.021 112.997 143.545 112.807 142.937 112.807ZM156.415 112.969H153.244V121H151.049V112.969H147.914V111.226H156.415V112.969ZM162.142 116.294H157.399V114.523H162.142V116.294ZM169.757 118.299L172.647 111.226H175.393V121H173.198V114.532L170.506 121H169.016L166.315 114.496V121H164.12V111.226H166.884L169.757 118.299ZM183.704 121C183.608 120.813 183.523 120.509 183.451 120.088C182.752 120.816 181.897 121.181 180.885 121.181C179.904 121.181 179.103 120.901 178.483 120.341C177.862 119.781 177.552 119.088 177.552 118.263C177.552 117.221 177.938 116.423 178.708 115.869C179.485 115.309 180.593 115.029 182.033 115.029H183.379V114.388C183.379 113.882 183.237 113.478 182.954 113.177C182.671 112.87 182.24 112.717 181.662 112.717C181.163 112.717 180.753 112.843 180.434 113.096C180.115 113.343 179.955 113.659 179.955 114.044H177.76C177.76 113.508 177.938 113.009 178.293 112.545C178.648 112.075 179.13 111.708 179.738 111.443C180.353 111.178 181.036 111.045 181.789 111.045C182.933 111.045 183.845 111.334 184.526 111.913C185.206 112.485 185.556 113.292 185.574 114.333V118.742C185.574 119.621 185.697 120.323 185.944 120.846V121H183.704ZM181.292 119.419C181.726 119.419 182.132 119.314 182.511 119.103C182.897 118.892 183.186 118.609 183.379 118.254V116.411H182.195C181.382 116.411 180.771 116.553 180.362 116.836C179.952 117.119 179.747 117.519 179.747 118.037C179.747 118.459 179.886 118.796 180.163 119.049C180.446 119.296 180.822 119.419 181.292 119.419ZM194.381 112.997H190.135V121H187.949V111.226H194.381V112.997ZM201.463 121C201.367 120.813 201.282 120.509 201.21 120.088C200.512 120.816 199.656 121.181 198.645 121.181C197.663 121.181 196.862 120.901 196.242 120.341C195.622 119.781 195.312 119.088 195.312 118.263C195.312 117.221 195.697 116.423 196.468 115.869C197.245 115.309 198.353 115.029 199.792 115.029H201.138V114.388C201.138 113.882 200.996 113.478 200.713 113.177C200.43 112.87 200 112.717 199.422 112.717C198.922 112.717 198.512 112.843 198.193 113.096C197.874 113.343 197.714 113.659 197.714 114.044H195.519C195.519 113.508 195.697 113.009 196.052 112.545C196.408 112.075 196.889 111.708 197.498 111.443C198.112 111.178 198.795 111.045 199.548 111.045C200.692 111.045 201.605 111.334 202.285 111.913C202.966 112.485 203.315 113.292 203.333 114.333V118.742C203.333 119.621 203.456 120.323 203.703 120.846V121H201.463ZM199.051 119.419C199.485 119.419 199.891 119.314 200.271 119.103C200.656 118.892 200.945 118.609 201.138 118.254V116.411H199.955C199.142 116.411 198.53 116.553 198.121 116.836C197.711 117.119 197.507 117.519 197.507 118.037C197.507 118.459 197.645 118.796 197.922 119.049C198.205 119.296 198.582 119.419 199.051 119.419ZM213.035 113.9C213.035 114.333 212.902 114.734 212.637 115.101C212.378 115.463 212.011 115.752 211.535 115.969C212.655 116.36 213.215 117.116 213.215 118.236C213.215 119.133 212.851 119.85 212.122 120.386C211.394 120.916 210.418 121.181 209.196 121.181C208.449 121.181 207.768 121.057 207.154 120.81C206.54 120.557 206.061 120.202 205.718 119.744C205.375 119.281 205.203 118.733 205.203 118.1H207.389C207.389 118.498 207.567 118.832 207.922 119.103C208.277 119.368 208.726 119.5 209.268 119.5C209.804 119.5 210.228 119.377 210.542 119.13C210.861 118.877 211.02 118.549 211.02 118.146C211.02 117.67 210.882 117.326 210.605 117.116C210.328 116.905 209.9 116.8 209.322 116.8H207.75V115.219H209.376C210.358 115.207 210.849 114.803 210.849 114.008C210.849 113.611 210.707 113.301 210.424 113.078C210.141 112.855 209.753 112.744 209.259 112.744C208.777 112.744 208.371 112.864 208.039 113.105C207.708 113.34 207.542 113.638 207.542 113.999H205.356C205.356 113.138 205.718 112.434 206.44 111.885C207.163 111.331 208.081 111.054 209.196 111.054C210.406 111.054 211.348 111.301 212.023 111.795C212.697 112.289 213.035 112.991 213.035 113.9ZM221.183 111.226H223.369V121H221.183V114.478L217.353 121H215.167V111.226H217.353V117.748L221.183 111.226ZM233.983 121H231.788V117.052H227.985V121H225.79V111.226H227.985V115.3H231.788V111.226H233.983V121ZM242.167 121C242.07 120.813 241.986 120.509 241.914 120.088C241.215 120.816 240.36 121.181 239.348 121.181C238.367 121.181 237.566 120.901 236.946 120.341C236.325 119.781 236.015 119.088 236.015 118.263C236.015 117.221 236.401 116.423 237.171 115.869C237.948 115.309 239.056 115.029 240.496 115.029H241.842V114.388C241.842 113.882 241.7 113.478 241.417 113.177C241.134 112.87 240.703 112.717 240.125 112.717C239.625 112.717 239.216 112.843 238.897 113.096C238.578 113.343 238.418 113.659 238.418 114.044H236.223C236.223 113.508 236.401 113.009 236.756 112.545C237.111 112.075 237.593 111.708 238.201 111.443C238.815 111.178 239.499 111.045 240.252 111.045C241.396 111.045 242.308 111.334 242.989 111.913C243.669 112.485 244.019 113.292 244.037 114.333V118.742C244.037 119.621 244.16 120.323 244.407 120.846V121H242.167ZM239.755 119.419C240.188 119.419 240.595 119.314 240.974 119.103C241.36 118.892 241.649 118.609 241.842 118.254V116.411H240.658C239.845 116.411 239.234 116.553 238.824 116.836C238.415 117.119 238.21 117.519 238.21 118.037C238.21 118.459 238.349 118.796 238.626 119.049C238.909 119.296 239.285 119.419 239.755 119.419Z" fill="#2B3B4C"/>
</svg>
