<?xml version="1.0" standalone="no"?>
<!DOCTYPE svg PUBLIC "-//W3C//DTD SVG 20010904//EN"
 "http://www.w3.org/TR/2001/REC-SVG-20010904/DTD/svg10.dtd">
<svg version="1.0" xmlns="http://www.w3.org/2000/svg"
 width="64.000000pt" height="64.000000pt" viewBox="0 0 64.000000 64.000000"
 preserveAspectRatio="xMidYMid meet">

<g transform="translate(0.000000,64.000000) scale(0.100000,-0.100000)"
fill="#c0c0c0" stroke="none">
<path d="M134 549 c-42 -12 -91 -69 -100 -115 -13 -70 9 -107 148 -255 71 -77
133 -139 138 -139 5 0 67 62 138 139 96 101 134 149 142 179 25 80 -12 155
-92 186 -55 23 -109 13 -154 -26 l-35 -31 -28 27 c-26 25 -79 47 -111 45 -8 0
-29 -5 -46 -10z"/>
</g>
</svg>
