<?xml version="1.0" standalone="no"?>
<!DOCTYPE svg PUBLIC "-//W3C//DTD SVG 20010904//EN"
 "http://www.w3.org/TR/2001/REC-SVG-20010904/DTD/svg10.dtd">
<svg version="1.0" xmlns="http://www.w3.org/2000/svg"
 width="24" height="24" viewBox="0 0 512.000000 512.000000"
 preserveAspectRatio="xMidYMid meet">

<g transform="translate(0.000000,512.000000) scale(0.100000,-0.100000)"
fill="#000000" stroke="none">
<path d="M2357 4835 c-431 -82 -770 -401 -884 -833 -22 -83 -26 -120 -27 -252
-1 -172 10 -247 57 -380 133 -381 440 -649 842 -736 164 -35 396 -20 570 37
470 155 789 624 762 1124 -26 480 -368 900 -832 1021 -127 33 -364 42 -488 19z
m453 -344 c214 -72 377 -217 471 -416 59 -126 73 -191 73 -340 0 -157 -14
-220 -84 -361 -99 -201 -269 -342 -497 -410 -75 -22 -107 -26 -213 -26 -106 0
-138 4 -213 26 -252 75 -436 241 -531 480 -59 146 -71 340 -30 491 76 284 296
499 589 576 56 15 98 18 205 15 121 -3 145 -6 230 -35z"/>
<path d="M2395 2500 c-478 -40 -926 -241 -1269 -570 -419 -401 -646 -938 -646
-1527 l0 -133 159 0 158 0 6 183 c12 314 65 530 193 778 367 711 1166 1086
1943 913 702 -157 1236 -719 1357 -1429 8 -49 18 -170 21 -267 l6 -178 158 0
159 0 0 124 c0 723 -335 1361 -923 1760 -374 254 -871 384 -1322 346z"/>
</g>
</svg>
